<svg width="79" height="48" viewBox="0 0 79 48" fill="none" xmlns="http://www.w3.org/2000/svg">
<rect width="79" height="48" rx="10" fill="#0F0F0F"/>
<path d="M10.7969 25.0696V22.5696L20.7969 18.1662V21.0426L13.9503 23.7912L14.0426 23.642V23.9972L13.9503 23.848L20.7969 26.5966V29.473L10.7969 25.0696ZM29.6818 16.4545H32.7216V26.5966C32.7216 27.5341 32.5109 28.3485 32.0895 29.0398C31.6728 29.7311 31.0928 30.2637 30.3494 30.6378C29.6061 31.0118 28.742 31.1989 27.7571 31.1989C26.8812 31.1989 26.0857 31.045 25.3707 30.7372C24.6605 30.4247 24.0971 29.9512 23.6804 29.3168C23.2637 28.6776 23.0578 27.875 23.0625 26.9091H26.1236C26.133 27.2926 26.2112 27.6217 26.358 27.8963C26.5095 28.1662 26.7154 28.3745 26.9759 28.5213C27.241 28.6634 27.5535 28.7344 27.9134 28.7344C28.2921 28.7344 28.6117 28.6539 28.8722 28.4929C29.1373 28.3272 29.3385 28.0857 29.4759 27.7685C29.6132 27.4512 29.6818 27.0606 29.6818 26.5966V16.4545ZM35.2642 31V16.4545H41.0028C42.1013 16.4545 43.0388 16.651 43.8153 17.044C44.5966 17.4323 45.1908 17.9839 45.598 18.6989C46.0099 19.4091 46.2159 20.2448 46.2159 21.206C46.2159 22.1719 46.0076 23.0028 45.5909 23.6989C45.1742 24.3902 44.5705 24.9205 43.7798 25.2898C42.9938 25.6591 42.0421 25.8438 40.9247 25.8438H37.0824V23.3722H40.4276C41.0147 23.3722 41.5024 23.2917 41.8906 23.1307C42.2789 22.9697 42.5677 22.7282 42.7571 22.4062C42.9512 22.0843 43.0483 21.6842 43.0483 21.206C43.0483 20.723 42.9512 20.3158 42.7571 19.9844C42.5677 19.6529 42.2765 19.402 41.8835 19.2315C41.4953 19.0563 41.0052 18.9688 40.4134 18.9688H38.3395V31H35.2642ZM43.1193 24.3807L46.7344 31H43.3395L39.8026 24.3807H43.1193ZM54.6676 15.7727L49.9801 33.1875H47.3736L52.0611 15.7727H54.6676ZM66.7148 26.4332L56.7148 30.8366V27.9602L63.5614 25.2116L63.4691 25.3608V25.0057L63.5614 25.1548L56.7148 22.4062V19.5298L66.7148 23.9332V26.4332Z" fill="white"/>
</svg>
