<svg width="32" height="32" viewBox="0 0 32 32" fill="none" xmlns="http://www.w3.org/2000/svg">
<rect width="32" height="32" rx="10" fill="black"/>
<path d="M11.0881 8.45455H14.1278V18.5966C14.1278 19.5341 13.9171 20.3485 13.4957 21.0398C13.0791 21.7311 12.4991 22.2637 11.7557 22.6378C11.0123 23.0118 10.1482 23.1989 9.16335 23.1989C8.28741 23.1989 7.49195 23.045 6.77699 22.7372C6.06676 22.4247 5.50331 21.9512 5.08665 21.3168C4.66998 20.6776 4.46402 19.875 4.46875 18.9091H7.52983C7.5393 19.2926 7.61742 19.6217 7.7642 19.8963C7.91572 20.1662 8.12169 20.3745 8.3821 20.5213C8.64725 20.6634 8.95975 20.7344 9.3196 20.7344C9.69839 20.7344 10.018 20.6539 10.2784 20.4929C10.5436 20.3272 10.7448 20.0857 10.8821 19.7685C11.0194 19.4512 11.0881 19.0606 11.0881 18.5966V8.45455ZM16.6705 23V8.45455H22.4091C23.5076 8.45455 24.4451 8.65104 25.2216 9.04403C26.0028 9.43229 26.5971 9.9839 27.0043 10.6989C27.4162 11.4091 27.6222 12.2448 27.6222 13.206C27.6222 14.1719 27.4138 15.0028 26.9972 15.6989C26.5805 16.3902 25.9768 16.9205 25.1861 17.2898C24.4001 17.6591 23.4484 17.8438 22.331 17.8438H18.4886V15.3722H21.8338C22.4209 15.3722 22.9086 15.2917 23.2969 15.1307C23.6851 14.9697 23.974 14.7282 24.1634 14.4062C24.3575 14.0843 24.4545 13.6842 24.4545 13.206C24.4545 12.723 24.3575 12.3158 24.1634 11.9844C23.974 11.6529 23.6828 11.402 23.2898 11.2315C22.9015 11.0563 22.4115 10.9688 21.8196 10.9688H19.7457V23H16.6705ZM24.5256 16.3807L28.1406 23H24.7457L21.2088 16.3807H24.5256Z" fill="white"/>
</svg>
